<svg version="1.1" xmlns="http://www.w3.org/2000/svg" xmlns:xlink="http://www.w3.org/1999/xlink" width="500" height="500" viewBox="0,0,500,500"><g fill="none" fill-rule="nonzero" stroke="none" stroke-width="none" stroke-linecap="butt" stroke-linejoin="miter" stroke-miterlimit="10" stroke-dasharray="" stroke-dashoffset="0" font-family="none" font-weight="none" font-size="none" text-anchor="none" style="mix-blend-mode: normal"><path d="M0,500v-500h500v500z" fill="#19021e" stroke="none" stroke-width="1"></path><path d="M143,327l-12,-46l-8,-36l-6,-40l-1,-27l-1,-18l2,-66l28,-41l48,-28l64,-5l58,18l42,34l19,46l3,59v4l-4,30l-4,35l-7,35l-8,28l-11,32l-11,17l-19,27l-41,21l-45,1l-33,-17l-27,-23l-15,-21z" fill="none" stroke="#ffffff" stroke-width="8"></path><path d="M375,211l8,-6l11,13l-5,16l-7,13l-10,27l-8,7l7,-35z" fill="none" stroke="#ffffff" stroke-width="8"></path><path d="M117,205l-12,-9l-10,13l11,23l10,35l15,14l-8,-36z" fill="none" stroke="#ffffff" stroke-width="8"></path><path d="M334,358l3,56l-18,34l-66,36l-83,-39l-20,-33l4,-66l15,21l27,23l33,17l45,-1l41,-21z" fill="none" stroke="#ffffff" stroke-width="8"></path><path d="M202,331l34,-11h23l38,11l-27,21h-41z" fill="none" stroke="#ffffff" stroke-width="8"></path><path d="M286,201l27,-20l20,6l6,8l-1,8l-24,8z" fill="none" stroke="#ffffff" stroke-width="8"></path><path d="M210,201l-27,-20l-20,6l-6,8l1,8l24,8z" fill="none" stroke="#ffffff" stroke-width="8"></path><path d="M116,178l35,-27l67,22l19,25v59l-7,21l18,14l19,-14l-8,-21v-59l19,-25l66,-22l35,26" fill="none" stroke="#ffffff" stroke-width="8"></path><path d="M202,331l47,6" fill="none" stroke="#ffffff" stroke-width="2"></path><path d="M249,337l48,-6" fill="none" stroke="#ffffff" stroke-width="2"></path><path d="M314,211l-47,67" fill="none" stroke="#ffffff" stroke-width="2"></path><path d="M267,278l89,31" fill="none" stroke="#ffffff" stroke-width="2"></path><path d="M356,309l-42,-98" fill="none" stroke="#ffffff" stroke-width="2"></path><path d="M314,211l57,35" fill="none" stroke="#ffffff" stroke-width="2"></path><path d="M339,195l40,-18" fill="none" stroke="#ffffff" stroke-width="2"></path><path d="M182,211l-2,56l-37,60" fill="none" stroke="#ffffff" stroke-width="2"></path><path d="M143,327l59,4l28,-53l-50,-11" fill="none" stroke="#ffffff" stroke-width="2"></path><path d="M158,203l-35,42" fill="none" stroke="#ffffff" stroke-width="2"></path><path d="M157,195l-6,-44" fill="none" stroke="#ffffff" stroke-width="2"></path><path d="M229,352l-33,38" fill="none" stroke="#ffffff" stroke-width="2"></path><path d="M270,352l4,54" fill="none" stroke="#ffffff" stroke-width="2"></path><path d="M267,278l30,53l48,10" fill="none" stroke="#ffffff" stroke-width="2"></path><path d="M286,201l-27,-3" fill="none" stroke="#ffffff" stroke-width="2"></path><path d="M145,53l38,110l57,-88l-95,-22" fill="none" stroke="#ffffff" stroke-width="2"></path><path d="M278,173l14,-58l52,36" fill="none" stroke="#ffffff" stroke-width="2"></path><path d="M315,38l-23,77l74,-21" fill="none" stroke="#ffffff" stroke-width="2"></path><path d="M315,38l-75,37" fill="none" stroke="#ffffff" stroke-width="2"></path><path d="M292,115l-109,48" fill="none" stroke="#ffffff" stroke-width="2"></path><path d="M170,445l59,-38l24,77" fill="none" stroke="#ffffff" stroke-width="2"></path><path d="M274,406l45,42" fill="none" stroke="#ffffff" stroke-width="2"></path></g></svg>